# xmcd CD database file
#
# Track frame offsets:
#	150
#	16738
#	42273
#	64424
#	91392
#	118754
#	140964
#	161558
#	182517
#	205368
#	227410
#	244296
#	265630
#	283960
#	304910
#	326872
#
# Disc length: 4667 seconds
#
# Revision: 0
# Processed by: cddbd v1.5.1PL0 Copyright (c) Steve Scherf et al.
# Submitted via: CDex 1.51
#
DISCID=ef123910
DTITLE=Various Artist - DJ Nik Volume 3
DYEAR=2005
DGENRE=Salsa
TTITLE0=Edwin Bonilla - Soy la Candela
TTITLE1=Quinto Mayor - Agua de Clavelito
TTITLE2=D'Mingo - Rumba
TTITLE3=Azabache - Conco a Diez
TTITLE4=Maraca - Descarga Total
TTITLE5=Pedro Conga y Su Orquestra - Ven Conmingo Corazon
TTITLE6=Frankie Morales y Orquestra - Ya Se Nos Fue
TTITLE7=Alfredo De La Fe - Muncea
TTITLE8=Jimmy Sabater con Son Boricua - Boozaba Zoo Descarga
TTITLE9=Papo Cocote - El Divorcio
TTITLE10=Estrellas Caiman - El Verdadero Son
TTITLE11=Karamba - Salsa con Candela
TTITLE12=Ray Viera - Lo Mio Es Cantar
TTITLE13=Johnny Ortiz y Taibori, canta: Tito Nieves - Son Nueva Yorkino
TTITLE14=Jack Costanzo - La La La
TTITLE15=Tito Puente and Eddie Palmieri - La Ultima Copa
EXTD=YEAR: 2005
EXTT0=
EXTT1=
EXTT2=
EXTT3=
EXTT4=
EXTT5=
EXTT6=
EXTT7=
EXTT8=
EXTT9=
EXTT10=
EXTT11=
EXTT12=
EXTT13=
EXTT14=
EXTT15=
PLAYORDER=
